<svg data-v-fde0c5aa="" xmlns="http://www.w3.org/2000/svg" viewBox="0 0 300 300" class="iconAbove"><!----><defs data-v-fde0c5aa=""><!----></defs><rect data-v-fde0c5aa="" fill="#488eff" x="0" y="0" width="300px" height="300px" class="logo-background-square"></rect><defs data-v-fde0c5aa=""><!----></defs><g data-v-fde0c5aa="" id="115424c2-1239-420d-a792-971e4d0d05fd" fill="#ffffff" transform="matrix(7.3019311378417,0,0,7.3019311378417,11.499885379638794,166.82735526894447)"><path d="M4.20 3.54L4.20 3.54L4.20 3.54Q3.23 3.51 2.48 4.17L2.48 4.17L2.48 4.17Q1.73 4.83 1.16 5.80L1.16 5.80L1.16 5.80Q0.58 6.77 0.39 7.92L0.39 7.92L0.39 7.92Q0.21 9.06 0.53 9.99L0.53 9.99L0.53 9.99Q0.85 10.92 1.42 11.60L1.42 11.60L1.42 11.60Q2.00 12.28 2.82 12.57L2.82 12.57L2.82 12.57Q3.64 12.86 4.42 12.54L4.42 12.54L4.42 12.54Q5.20 12.22 6.06 11.03L6.06 11.03L5.78 10.75L5.78 10.75Q4.44 12.14 3.08 11.32L3.08 11.32L3.08 11.32Q1.72 10.49 1.30 8.87L1.30 8.87L1.30 8.87Q0.88 7.25 1.53 5.98L1.53 5.98L1.53 5.98Q2.18 4.71 3.28 4.50L3.28 4.50L3.28 4.50Q4.39 4.29 4.77 4.83L4.77 4.83L4.77 4.83Q5.15 5.37 4.86 5.63L4.86 5.63L4.97 5.74L5.89 5.09L5.89 5.09Q6.04 4.69 5.60 4.13L5.60 4.13L5.60 4.13Q5.16 3.56 4.20 3.54ZM7.55 3.68L6.82 4.38L6.82 4.38Q7.36 4.68 7.49 5.35L7.49 5.35L7.49 5.35Q8.49 4.81 8.27 4.32L8.27 4.32L8.27 4.32Q8.05 3.83 7.55 3.68L7.55 3.68ZM6.97 7.41L6.97 7.41Q7.30 7.39 7.22 9.19L7.22 9.19L7.22 9.19Q7.18 11.33 7.23 11.84L7.23 11.84L7.23 11.84Q7.28 12.35 7.84 12.68L7.84 12.68L8.64 11.84L8.64 11.84Q8.20 11.73 8.25 10.31L8.25 10.31L8.25 10.31Q8.27 7.65 8.25 7.25L8.25 7.25L8.25 7.25Q8.24 6.85 7.88 6.45L7.88 6.45L6.86 7.22L6.97 7.41ZM10.71 6.39L9.36 7.22L9.45 7.33L9.45 7.33Q10.08 6.92 10.06 8.52L10.06 8.52L10.06 8.52Q9.99 11.43 10.08 11.88L10.08 11.88L10.08 11.88Q10.17 12.34 10.92 12.70L10.92 12.70L11.92 12.00L11.87 11.86L11.87 11.86Q11.31 12.18 11.19 11.16L11.19 11.16L11.19 11.16Q11.07 10.14 11.14 8.24L11.14 8.24L11.14 8.24Q12.46 6.81 13.42 7.10L13.42 7.10L13.42 7.10Q14.38 7.39 14.23 9.29L14.23 9.29L14.23 9.29Q14.20 11.34 14.25 11.83L14.25 11.83L14.25 11.83Q14.29 12.32 14.89 12.68L14.89 12.68L15.93 11.95L15.84 11.79L15.84 11.79Q15.36 12.04 15.29 11.10L15.29 11.10L15.29 11.10Q15.22 10.17 15.29 8.73L15.29 8.73L15.29 8.73Q15.34 7.85 15.07 7.26L15.07 7.26L15.07 7.26Q14.81 6.68 14.13 6.44L14.13 6.44L14.13 6.44Q13.45 6.20 12.64 6.55L12.64 6.55L12.64 6.55Q11.83 6.90 11.17 7.59L11.17 7.59L11.17 7.59Q11.23 6.75 10.71 6.39L10.71 6.39ZM19.65 6.60L19.65 6.60L19.65 6.60Q18.58 6.43 17.65 7.26L17.65 7.26L17.65 7.26Q16.72 8.09 16.46 9.20L16.46 9.20L16.46 9.20Q16.20 10.31 16.62 11.26L16.62 11.26L16.62 11.26Q17.04 12.22 18.18 12.62L18.18 12.62L18.18 12.62Q19.11 12.93 20.12 12.18L20.12 12.18L20.12 12.18Q21.12 11.43 21.23 10.84L21.23 10.84L21.03 10.68L21.03 10.68Q20.21 11.85 19.43 11.81L19.43 11.81L19.43 11.81Q18.65 11.76 18.26 11.46L18.26 11.46L18.26 11.46Q17.88 11.15 17.66 10.80L17.66 10.80L19.56 9.54L19.56 9.54Q21 8.65 20.86 7.70L20.86 7.70L20.86 7.70Q20.71 6.76 19.65 6.60ZM17.21 8.75L17.21 8.75L17.21 8.75Q17.22 8.12 17.73 7.58L17.73 7.58L17.73 7.58Q18.23 7.04 18.83 7.19L18.83 7.19L18.83 7.19Q19.43 7.34 19.66 8.00L19.66 8.00L19.66 8.00Q19.90 8.67 19.61 9.02L19.61 9.02L19.61 9.02Q19.31 9.37 17.49 10.40L17.49 10.40L17.49 10.40Q17.33 10.04 17.27 9.71L17.27 9.71L17.27 9.71Q17.21 9.37 17.21 8.75ZM26.97 7.75L27.00 8.42L27.00 8.42Q27.82 7.22 28.83 7.23L28.83 7.23L28.83 7.23Q29.84 7.23 29.73 8.74L29.73 8.74L29.73 8.74Q29.71 11.40 29.76 11.89L29.76 11.89L29.76 11.89Q29.80 12.39 30.39 12.74L30.39 12.74L31.49 11.93L31.42 11.77L31.42 11.77Q30.73 12.26 30.76 10.05L30.76 10.05L30.76 10.05Q30.80 7.83 30.67 7.37L30.67 7.37L30.67 7.37Q30.54 6.90 29.81 6.60L29.81 6.60L29.81 6.60Q29.09 6.29 28.45 6.64L28.45 6.64L28.45 6.64Q27.82 6.99 27.54 7.22L27.54 7.22L27.54 7.22Q27.25 7.44 26.97 7.75L26.97 7.75ZM22.96 6.55L21.66 7.42L21.74 7.57L21.74 7.57Q22.37 7.20 22.38 8.48L22.38 8.48L22.38 8.48Q22.31 11.45 22.40 11.91L22.40 11.91L22.40 11.91Q22.49 12.37 23.06 12.71L23.06 12.71L24.13 12.00L24.13 11.84L24.13 11.84Q23.56 11.92 23.48 11.07L23.48 11.07L23.48 11.07Q23.40 10.23 23.47 8.33L23.47 8.33L23.47 8.33Q24.20 7.22 25.21 7.23L25.21 7.23L25.21 7.23Q26.22 7.23 26.11 8.74L26.11 8.74L26.11 8.74Q26.09 11.40 26.13 11.89L26.13 11.89L26.13 11.89Q26.18 12.39 26.76 12.74L26.76 12.74L27.87 11.93L27.79 11.77L27.79 11.77Q27.10 12.26 27.14 10.05L27.14 10.05L27.14 10.05Q27.17 7.83 27.04 7.37L27.04 7.37L27.04 7.37Q26.91 6.90 26.19 6.60L26.19 6.60L26.19 6.60Q25.46 6.29 24.83 6.64L24.83 6.64L24.83 6.64Q24.19 6.99 23.91 7.22L23.91 7.22L23.91 7.22Q23.63 7.44 23.45 7.66L23.45 7.66L23.45 7.66Q23.51 6.81 22.96 6.55L22.96 6.55ZM34.64 6.54L34.64 6.54L34.64 6.54Q33.63 6.56 32.78 7.23L32.78 7.23L32.78 7.23Q31.94 7.90 32.36 8.74L32.36 8.74L33.48 8.07L33.48 8.07Q33.26 6.90 34.68 7.03L34.68 7.03L34.68 7.03Q36.11 7.15 35.92 8.89L35.92 8.89L35.92 8.89Q34.82 8.39 33.94 8.61L33.94 8.61L33.94 8.61Q33.06 8.82 32.32 9.71L32.32 9.71L32.32 9.71Q31.73 10.58 31.95 11.18L31.95 11.18L31.95 11.18Q32.16 11.79 32.65 12.23L32.65 12.23L32.65 12.23Q33.13 12.67 33.73 12.71L33.73 12.71L33.73 12.71Q34.32 12.76 34.73 12.48L34.73 12.48L34.73 12.48Q35.14 12.20 35.94 11.49L35.94 11.49L35.94 11.49Q36.00 12.36 36.50 12.76L36.50 12.76L37.61 11.80L37.52 11.64L37.52 11.64Q36.96 12.10 36.89 10.58L36.89 10.58L36.90 8.14L36.90 8.14Q36.87 7.23 36.26 6.88L36.26 6.88L36.26 6.88Q35.66 6.53 34.64 6.54ZM35.62 9.84L35.62 9.84L35.90 9.47L35.90 11.08L35.90 11.08Q35.03 11.95 34.41 11.90L34.41 11.90L34.41 11.90Q33.79 11.85 33.37 11.48L33.37 11.48L33.37 11.48Q32.94 11.12 32.75 10.64L32.75 10.64L32.75 10.64Q32.56 10.17 32.83 9.71L32.83 9.71L32.83 9.71Q33.09 9.26 33.88 9.19L33.88 9.19L33.88 9.19Q34.67 9.11 35.62 9.84Z"></path></g><defs data-v-fde0c5aa=""><!----></defs><g data-v-fde0c5aa="" id="df164ca5-e66d-4d0e-8da4-3527ef609111" stroke="none" fill="#7fe7ff" transform="matrix(1.6303469336055532,0,0,1.6303469336055532,76.6343829345851,33.96771626791844)"><path d="M45 86.3C22.2 86.3 3.7 67.8 3.7 45S22.2 3.7 45 3.7c22.8 0 41.3 18.5 41.3 41.3 0 9.6-3.3 18.9-9.4 26.3-1.8 2.1-4.9 2.4-7 .7-2.1-1.8-2.4-4.9-.7-7 4.6-5.6 7.1-12.6 7.1-19.9 0-17.2-14-31.3-31.3-31.3-17.2 0-31.3 14-31.3 31.3s14 31.3 31.3 31.3c2.8 0 5 2.2 5 5s-2.2 4.9-5 4.9z"></path><path d="M58 23.4c-2.2 0-4.4.8-6 2.5-3.3 3.3-3.3 8.7 0 12.1 1.7 1.7 3.8 2.5 6 2.5s4.4-.8 6-2.5c3.3-3.3 3.3-8.7 0-12.1-1.6-1.6-3.8-2.5-6-2.5zM32 49.5c-2.2 0-4.4.8-6 2.5-3.3 3.3-3.3 8.7 0 12.1 1.7 1.7 3.8 2.5 6 2.5s4.4-.8 6-2.5c3.3-3.3 3.3-8.7 0-12.1-1.7-1.7-3.8-2.5-6-2.5zM58 49.5c-2.2 0-4.4.8-6 2.5-3.3 3.3-3.3 8.7 0 12.1 1.7 1.7 3.8 2.5 6 2.5s4.4-.8 6-2.5c3.3-3.3 3.3-8.7 0-12.1-1.6-1.7-3.8-2.5-6-2.5zM32 23.4c-2.2 0-4.4.8-6 2.5-3.3 3.3-3.3 8.7 0 12.1 1.7 1.7 3.9 2.5 6 2.5 2.2 0 4.4-.8 6-2.5 3.3-3.3 3.3-8.7 0-12.1-1.7-1.6-3.8-2.5-6-2.5z"></path><g><path d="M45 41.2c-1 0-1.9.4-2.7 1.1-1.5 1.5-1.5 3.9 0 5.4.7.7 1.7 1.1 2.7 1.1 1 0 1.9-.4 2.7-1.1 1.5-1.5 1.5-3.9 0-5.4-.8-.7-1.7-1.1-2.7-1.1z"></path></g><path d="M81.3 86.3H44.6c-2.8 0-5-2.2-5-5s2.2-5 5-5h36.7c2.8 0 5 2.2 5 5s-2.3 5-5 5z"></path></g><!----></svg>